<svg width="49" height="49" viewBox="0 0 49 49" fill="none" xmlns="http://www.w3.org/2000/svg">
<path d="M8.69751 22.4996V32.6467C8.69751 36.3625 8.69751 36.3625 12.2092 38.7309L21.8663 44.3046C23.3158 45.1417 25.6842 45.1417 27.1338 44.3046L36.7908 38.7309C40.3025 36.3625 40.3025 36.3625 40.3025 32.6467V22.4996C40.3025 18.7838 40.3025 18.7838 36.7908 16.4154L27.1338 10.8417C25.6842 10.0046 23.3158 10.0046 21.8663 10.8417L12.2092 16.4154C8.69751 18.7838 8.69751 18.7838 8.69751 22.4996Z" stroke="white" stroke-width="3" stroke-linecap="round" stroke-linejoin="round"/>
<path d="M35.7292 15.5776V10.208C35.7292 6.12467 33.6875 4.08301 29.6042 4.08301H19.3958C15.3125 4.08301 13.2708 6.12467 13.2708 10.208V15.4347M25.7863 22.4376L26.95 24.2547C27.1338 24.5405 27.5421 24.8263 27.8483 24.908L29.9308 25.4388C31.2171 25.7655 31.5642 26.868 30.7271 27.8888L29.3592 29.5426C29.155 29.808 28.9917 30.2776 29.0121 30.6043L29.1346 32.748C29.2163 34.0751 28.2771 34.7488 27.0521 34.2588L25.0513 33.4626C24.687 33.3401 24.2926 33.3401 23.9283 33.4626L21.9275 34.2588C20.7025 34.7488 19.7633 34.0547 19.845 32.748L19.9675 30.6043C19.9879 30.2776 19.8246 29.7876 19.6204 29.5426L18.2525 27.8888C17.4154 26.868 17.7625 25.7655 19.0488 25.4388L21.1313 24.908C21.4579 24.8263 21.8663 24.5201 22.0296 24.2547L23.1933 22.4376C23.9283 21.3351 25.0717 21.3351 25.7863 22.4376Z" stroke="white" stroke-width="3" stroke-linecap="round" stroke-linejoin="round"/>
</svg>
