<svg width="49" height="49" viewBox="0 0 49 49" fill="none" xmlns="http://www.w3.org/2000/svg">
<path d="M21.952 34.4229V38.5674C21.952 42.0791 18.6853 44.917 14.6633 44.917C10.6412 44.917 7.3541 42.0791 7.3541 38.5674V34.4229C7.3541 37.9345 10.6208 40.4253 14.6633 40.4253C18.6853 40.4253 21.952 37.9141 21.952 34.4229Z" stroke="white" stroke-width="3" stroke-linecap="round" stroke-linejoin="round"/>
<path d="M21.9479 28.8077C21.9479 29.8285 21.6621 30.7677 21.1721 31.5843C19.9675 33.5648 17.4971 34.8102 14.6388 34.8102C11.7804 34.8102 9.31001 33.5443 8.10542 31.5843C7.61542 30.7677 7.32959 29.8285 7.32959 28.8077C7.32959 27.0518 8.14626 25.4798 9.45292 24.3364C10.78 23.1727 12.5971 22.4785 14.6183 22.4785C16.6396 22.4785 18.4567 23.1931 19.7838 24.3364C21.1313 25.4593 21.9479 27.0518 21.9479 28.8077Z" stroke="white" stroke-width="3" stroke-linecap="round" stroke-linejoin="round"/>
<path d="M21.952 28.8078V34.4224C21.952 37.934 18.6853 40.4249 14.6633 40.4249C10.6412 40.4249 7.3541 37.9136 7.3541 34.4224V28.8078C7.3541 25.2961 10.6208 22.4582 14.6633 22.4582C16.6845 22.4582 18.5016 23.1728 19.8287 24.3161C21.1353 25.4595 21.952 27.052 21.952 28.8078ZM44.9167 22.397V26.6028C44.9167 27.7257 44.0183 28.6445 42.875 28.6853H38.8733C36.6683 28.6853 34.6471 27.0724 34.4633 24.8674C34.3408 23.5811 34.8308 22.3765 35.6883 21.5395C36.4438 20.7636 37.485 20.3145 38.6283 20.3145H42.875C44.0183 20.3553 44.9167 21.274 44.9167 22.397Z" stroke="white" stroke-width="3" stroke-linecap="round" stroke-linejoin="round"/>
<path d="M4.08334 21.4372V17.3538C4.08334 11.8005 7.43168 7.92134 12.6379 7.26801C13.1688 7.18634 13.72 7.14551 14.2917 7.14551H32.6667C33.1975 7.14551 33.7079 7.16592 34.1979 7.24759C39.4654 7.86009 42.875 11.7597 42.875 17.3538V20.3143H38.6283C37.485 20.3143 36.4438 20.7634 35.6883 21.5393C34.8308 22.3763 34.3408 23.5809 34.4633 24.8672C34.6471 27.0722 36.6683 28.6851 38.8733 28.6851H42.875V31.6455C42.875 37.7705 38.7917 41.8538 32.6667 41.8538H27.5625" stroke="white" stroke-width="3" stroke-linecap="round" stroke-linejoin="round"/>
</svg>
