<svg width="49" height="49" viewBox="0 0 49 49" fill="none" xmlns="http://www.w3.org/2000/svg">
<path d="M20.5596 5.75703L6.41084 17.0883C4.81834 18.3541 3.7975 21.0287 4.14459 23.0295L6.86 39.2812C7.35 42.1804 10.1267 44.5283 13.0667 44.5283H35.9333C38.8529 44.5283 41.65 42.1599 42.14 39.2812L44.8554 23.0295C45.1821 21.0287 44.1613 18.3541 42.5892 17.0883L28.4404 5.77745C26.2558 4.02161 22.7237 4.02161 20.5596 5.75703Z" stroke="white" stroke-width="3" stroke-linecap="round" stroke-linejoin="round"/>
<path d="M20.1717 29.3587C22.7646 26.8883 26.2354 26.8883 28.8283 29.3587M33.1567 25.0303C32.1046 23.9966 30.8908 23.1415 29.5633 22.4987C27.9817 21.7328 26.2471 21.335 24.4898 21.335C22.7324 21.335 20.9979 21.7328 19.4162 22.4987C18.1504 23.1112 16.9458 23.9483 15.8229 25.0303" stroke="white" stroke-width="1.5" stroke-linecap="round" stroke-linejoin="round"/>
<path d="M24.4898 34.708H24.5102" stroke="white" stroke-width="2" stroke-linecap="round" stroke-linejoin="round"/>
</svg>
