<svg width="49" height="49" viewBox="0 0 49 49" fill="none" xmlns="http://www.w3.org/2000/svg">
<path d="M44.9167 20.4163V30.6247C44.9167 40.833 40.8333 44.9163 30.625 44.9163H18.375C8.16668 44.9163 4.08334 40.833 4.08334 30.6247V18.3747C4.08334 8.16634 8.16668 4.08301 18.375 4.08301H28.5833" stroke="white" stroke-width="3" stroke-linecap="round" stroke-linejoin="round"/>
<path d="M44.9167 20.4163H36.75C30.625 20.4163 28.5833 18.3747 28.5833 12.2497V4.08301L44.9167 20.4163ZM13.5158 32.1151C12.8421 30.0122 13.6383 27.4193 15.8229 26.7047C16.9867 26.3372 18.4158 26.6434 19.2121 27.7663C19.9675 26.6026 21.4579 26.3372 22.6012 26.7047C24.8062 27.4193 25.5821 30.0122 24.9287 32.1151C23.8875 35.443 20.2329 37.1784 19.2121 37.1784C18.2117 37.158 14.5979 35.4634 13.5158 32.1151Z" stroke="white" stroke-width="3" stroke-linecap="round" stroke-linejoin="round"/>
</svg>
