<svg width="49" height="49" viewBox="0 0 49 49" fill="none" xmlns="http://www.w3.org/2000/svg">
<path d="M21.4171 4.55281L11.2292 8.37073C8.88126 9.24865 6.9621 12.0253 6.9621 14.5366V29.7061C6.9621 32.1153 8.5546 35.2799 10.4942 36.7295L19.2733 43.2832C22.1521 45.4474 26.8888 45.4474 29.7675 43.2832L38.5467 36.7295C40.4863 35.2799 42.0788 32.1153 42.0788 29.7061V14.5366C42.0788 12.0253 40.1596 9.24865 37.8117 8.37073L27.6238 4.55281C25.8883 3.9199 23.1117 3.9199 21.4171 4.55281Z" stroke="white" stroke-width="3" stroke-linecap="round" stroke-linejoin="round"/>
<path d="M24.5 22.2951H24.2346C22.3154 22.2338 20.7842 20.6413 20.7842 18.7017C20.7842 16.7213 22.3971 15.1084 24.3775 15.1084C26.3579 15.1084 27.9708 16.7213 27.9708 18.7017C27.9504 20.6617 26.4192 22.2338 24.5 22.2951ZM20.4371 28.0117C18.4771 29.3184 18.4771 31.4621 20.4371 32.7688C22.6625 34.2592 26.3171 34.2592 28.5425 32.7688C30.5025 31.4621 30.5025 29.3184 28.5425 28.0117C26.3375 26.5213 22.6829 26.5213 20.4371 28.0117Z" stroke="white" stroke-width="3" stroke-linecap="round" stroke-linejoin="round"/>
</svg>
