<svg width="49" height="49" viewBox="0 0 49 49" fill="none" xmlns="http://www.w3.org/2000/svg">
<path d="M44.7329 44.9162L38.5467 38.7299M35.3004 8.45201L35.1575 16.1899C35.1371 17.2516 35.8108 18.6603 36.6683 19.2933L41.7317 23.1316C44.9779 25.5816 44.4471 28.5828 40.5679 29.8078L33.9733 31.8699C32.8708 32.217 31.7071 33.4216 31.4212 34.5445L29.8492 40.547C28.6037 45.2837 25.5004 45.7533 22.9279 41.5883L19.3346 35.7695C18.6812 34.7078 17.1296 33.9116 15.9046 33.9728L9.08541 34.3199C4.20583 34.5649 2.81749 31.7474 6.00249 28.0316L10.045 23.3358C10.8004 22.4578 11.1475 20.8245 10.8004 19.722L8.73833 13.1274C7.53374 9.24826 9.69791 7.10451 13.5567 8.37035L19.5796 10.3508C20.6004 10.6774 22.1317 10.4528 22.9892 9.81993L29.2775 5.28743C32.6667 2.83743 35.3821 4.2666 35.3004 8.45201Z" stroke="white" stroke-width="3" stroke-linecap="round" stroke-linejoin="round"/>
</svg>
