<svg width="49" height="49" viewBox="0 0 49 49" fill="none" xmlns="http://www.w3.org/2000/svg">
<path d="M34.7083 27.3587V33.4837C34.7083 41.6503 31.4417 44.917 23.275 44.917H15.5167C7.35001 44.917 4.08334 41.6503 4.08334 33.4837V25.7253C4.08334 17.5587 7.35001 14.292 15.5167 14.292H21.6417" stroke="white" stroke-width="3" stroke-linecap="round" stroke-linejoin="round"/>
<path d="M23.6833 4.08301H31.85M14.2917 10.208C14.2917 6.81884 17.0275 4.08301 20.4167 4.08301H25.7658M44.9167 16.333V28.9709C44.9167 32.1355 42.3442 34.708 39.1796 34.708M44.9167 16.333H38.7917C34.1979 16.333 32.6667 14.8018 32.6667 10.208V4.08301L44.9167 16.333ZM34.7083 27.358H28.175C23.275 27.358 21.6417 25.7247 21.6417 20.8247V14.2913L34.7083 27.358Z" stroke="white" stroke-width="3" stroke-linecap="round" stroke-linejoin="round"/>
</svg>
