<svg width="95" height="95" viewBox="0 0 95 95" fill="none" xmlns="http://www.w3.org/2000/svg">
<path d="M67.1729 57.1587C72.5958 58.0691 78.5729 57.1191 82.7688 54.3087C88.35 50.5878 88.35 44.492 82.7688 40.7712C78.5333 37.9607 72.4771 37.0107 67.0542 37.9607M27.7083 57.1587C22.2854 58.0691 16.3083 57.1191 12.1125 54.3087C6.53126 50.5878 6.53126 44.492 12.1125 40.7712C16.3479 37.9607 22.4042 37.0107 27.8271 37.9607M71.25 28.342C71.0009 28.3024 70.7471 28.3024 70.4979 28.342C67.8563 28.2465 65.3552 27.1276 63.5234 25.2219C61.6915 23.3162 60.6723 20.7729 60.6813 18.1295C60.6813 12.4691 65.2333 7.91699 70.8938 7.91699C73.6023 7.91699 76.1999 8.99295 78.1151 10.9082C80.0303 12.8234 81.1063 15.421 81.1063 18.1295C81.099 20.7747 80.0692 23.3147 78.2322 25.2181C76.3952 27.1215 73.8933 28.2409 71.25 28.342ZM23.6313 28.342C23.8688 28.3024 24.1458 28.3024 24.3833 28.342C27.025 28.2465 29.526 27.1276 31.3579 25.2219C33.1898 23.3162 34.2089 20.7729 34.2 18.1295C34.2 12.4691 29.6479 7.91699 23.9875 7.91699C21.279 7.91699 18.6814 8.99295 16.7662 10.9082C14.851 12.8234 13.775 15.421 13.775 18.1295C13.8146 23.6712 18.1688 28.1441 23.6313 28.342ZM47.5 57.9107C47.2509 57.8711 46.9971 57.8711 46.7479 57.9107C44.1063 57.8152 41.6052 56.6964 39.7734 54.7906C37.9415 52.8849 36.9223 50.3416 36.9313 47.6982C36.9313 42.0378 41.4833 37.4857 47.1438 37.4857C49.8523 37.4857 52.4499 38.5617 54.3651 40.4769C56.2803 42.3921 57.3563 44.9897 57.3563 47.6982C57.3167 53.2399 52.9625 57.7524 47.5 57.9107ZM35.9813 70.3795C30.4 74.1003 30.4 80.1962 35.9813 83.917C42.3146 88.1524 52.6854 88.1524 59.0188 83.917C64.6 80.1962 64.6 74.1003 59.0188 70.3795C52.725 66.1837 42.3146 66.1837 35.9813 70.3795Z" stroke="white" stroke-width="5" stroke-linecap="round" stroke-linejoin="round"/>
</svg>
