<svg width="80" height="80" viewBox="0 0 80 80" fill="none" xmlns="http://www.w3.org/2000/svg">
<path d="M55.8333 30.3999L49.6667 24.2333C47.3333 21.8999 44.1333 22.0333 42.5667 24.4999L39.1333 29.9333L50.1 40.8999L55.5333 37.4666C57.9 35.9999 58.0333 32.5666 55.8333 30.3999Z" stroke="black" stroke-width="4" stroke-linecap="round" stroke-linejoin="round"/>
<path d="M39.1333 29.9332L31.1667 29.4666C26.7 29.1999 25.1667 30.5666 24.6667 34.7999L22.6667 51.6999C22.2333 55.2666 24.8 57.7999 28.3667 57.3999L45.2667 55.3999C49.5 54.8999 51.0333 53.3666 50.6 48.8999L50.1333 40.9332M24.9667 55.0666L31.1333 48.8999" stroke="black" stroke-width="4" stroke-linecap="round" stroke-linejoin="round"/>
<path d="M30 73.3332H50C66.6667 73.3332 73.3333 66.6665 73.3333 49.9998V29.9998C73.3333 13.3332 66.6667 6.6665 50 6.6665H30C13.3333 6.6665 6.66667 13.3332 6.66667 29.9998V49.9998C6.66667 66.6665 13.3333 73.3332 30 73.3332Z" stroke="black" stroke-width="4" stroke-linecap="round" stroke-linejoin="round"/>
</svg>
