<svg width="80" height="80" viewBox="0 0 80 80" fill="none" xmlns="http://www.w3.org/2000/svg">
<path d="M73.3333 36.9998V22.9998C73.3333 11.3332 68.6667 6.6665 57 6.6665H43C31.3333 6.6665 26.6667 11.3332 26.6667 22.9998V26.6665H37C48.6667 26.6665 53.3333 31.3332 53.3333 42.9998V53.3332H57C68.6667 53.3332 73.3333 48.6665 73.3333 36.9998Z" stroke="black" stroke-width="4" stroke-linecap="round" stroke-linejoin="round"/>
<path d="M53.3333 56.9998V42.9998C53.3333 31.3332 48.6667 26.6665 37 26.6665H23C11.3333 26.6665 6.66666 31.3332 6.66666 42.9998V56.9998C6.66666 68.6665 11.3333 73.3332 23 73.3332H37C48.6667 73.3332 53.3333 68.6665 53.3333 56.9998Z" stroke="black" stroke-width="4" stroke-linecap="round" stroke-linejoin="round"/>
<path d="M20.2667 50L26.7667 56.5L39.7333 43.5" stroke="black" stroke-width="4" stroke-linecap="round" stroke-linejoin="round"/>
</svg>
