<svg width="95" height="95" viewBox="0 0 95 95" fill="none" xmlns="http://www.w3.org/2000/svg">
<path d="M39.7812 10.015L15.9521 25.5713C8.31249 30.5588 8.31249 41.7213 15.9521 46.7088L39.7812 62.265C44.0562 65.0754 51.1021 65.0754 55.3771 62.265L79.0875 46.7088C86.6875 41.7213 86.6875 30.5983 79.0875 25.6108L55.3771 10.0546C51.1021 7.20458 44.0562 7.20458 39.7812 10.015Z" stroke="white" stroke-width="5" stroke-linecap="round" stroke-linejoin="round"/>
<path d="M22.2854 51.775L22.2458 70.3396C22.2458 75.3667 26.125 80.75 30.875 82.3333L43.5021 86.5292C45.6792 87.2417 49.2812 87.2417 51.4979 86.5292L64.125 82.3333C68.875 80.75 72.7541 75.3667 72.7541 70.3396V51.9729M84.7083 59.375V35.625" stroke="white" stroke-width="5" stroke-linecap="round" stroke-linejoin="round"/>
</svg>
