<svg width="95" height="95" viewBox="0 0 95 95" fill="none" xmlns="http://www.w3.org/2000/svg">
<path d="M39.3169 10.0857L14.0705 25.515C5.97651 30.4619 5.97651 41.5333 14.0705 46.4801L39.3169 61.9094C43.8462 64.6969 51.3111 64.6969 55.8403 61.9094L80.961 46.4801C89.013 41.5333 89.013 30.5011 80.961 25.5543L55.8403 10.125C51.3111 7.29825 43.8462 7.29825 39.3169 10.0857Z" stroke="white" stroke-width="5" stroke-linecap="round" stroke-linejoin="round"/>
<path d="M21.0418 52.0123L21 70.4186C21 75.4028 25.0989 80.7403 30.1179 82.3101L43.4601 86.4702C45.7605 87.1766 49.5665 87.1766 51.9087 86.4702L65.251 82.3101C70.27 80.7403 74.3688 75.4028 74.3688 70.4186V52.2085M87 59.5475V36" stroke="white" stroke-width="5" stroke-linecap="round" stroke-linejoin="round"/>
</svg>
