<svg width="80" height="80" viewBox="0 0 80 80" fill="none" xmlns="http://www.w3.org/2000/svg">
<path d="M22.3334 59.9998H13.8334C9.06669 59.9998 6.66669 57.5998 6.66669 52.8332V13.8332C6.66669 9.0665 9.06669 6.6665 13.8334 6.6665H28.1667C32.9334 6.6665 35.3334 9.0665 35.3334 13.8332V19.9998" stroke="black" stroke-width="4" stroke-miterlimit="10" stroke-linecap="round" stroke-linejoin="round"/>
<path d="M57.9 28.0667V65.2667C57.9 70.6333 55.2333 73.3333 49.8666 73.3333H30.4C25.0333 73.3333 22.3333 70.6333 22.3333 65.2667V28.0667C22.3333 22.7 25.0333 20 30.4 20H49.8666C55.2333 20 57.9 22.7 57.9 28.0667Z" stroke="black" stroke-width="4" stroke-miterlimit="10" stroke-linecap="round" stroke-linejoin="round"/>
<path d="M44.6666 19.9998V13.8332C44.6666 9.0665 47.0666 6.6665 51.8333 6.6665H66.1666C70.9333 6.6665 73.3333 9.0665 73.3333 13.8332V52.8332C73.3333 57.5998 70.9333 59.9998 66.1666 59.9998H57.9M33.3333 36.6665H46.6666M33.3333 46.6665H46.6666M40 73.3332V63.3332" stroke="black" stroke-width="4" stroke-miterlimit="10" stroke-linecap="round" stroke-linejoin="round"/>
</svg>
