<svg width="80" height="80" viewBox="0 0 80 80" fill="none" xmlns="http://www.w3.org/2000/svg">
<path d="M30 73.3332H50C66.6667 73.3332 73.3334 66.6665 73.3334 49.9998V29.9998C73.3334 13.3332 66.6667 6.6665 50 6.6665H30C13.3334 6.6665 6.66669 13.3332 6.66669 29.9998V49.9998C6.66669 66.6665 13.3334 73.3332 30 73.3332Z" stroke="black" stroke-width="5" stroke-linecap="round" stroke-linejoin="round"/>
<path d="M40 26.9998V58.8665M61.2667 50.8998V25.2665C61.2667 22.6998 59.2 20.8331 56.6667 21.0331H56.5333C52.0667 21.3998 45.3 23.6998 41.5 26.0665L41.1333 26.2998C40.5333 26.6665 39.5 26.6665 38.8667 26.2998L38.3333 25.9665C34.5667 23.5998 27.8 21.3665 23.3333 20.9998C20.8 20.7998 18.7333 22.6998 18.7333 25.2331V50.8998C18.7333 52.9331 20.4 54.8665 22.4333 55.0998L23.0333 55.1998C27.6333 55.7998 34.7667 58.1665 38.8333 60.3998L38.9333 60.4331C39.5 60.7665 40.4333 60.7665 40.9667 60.4331C45.0333 58.1665 52.2 55.8331 56.8333 55.1998L57.5333 55.0998C59.6 54.8665 61.2667 52.9665 61.2667 50.8998Z" stroke="black" stroke-width="5" stroke-linecap="round" stroke-linejoin="round"/>
</svg>
