<svg width="80" height="80" viewBox="0 0 80 80" fill="none" xmlns="http://www.w3.org/2000/svg">
<path d="M72.2 34.8002L68.9333 48.7335C66.1333 60.7669 60.6 65.6335 50.2 64.6335C48.5333 64.5002 46.7333 64.2002 44.8 63.7335L39.2 62.4002C25.3 59.1002 21 52.2335 24.2667 38.3002L27.5333 24.3335C28.2 21.5002 29 19.0335 30 17.0002C33.9 8.93352 40.5333 6.76686 51.6667 9.40019L57.2333 10.7002C71.2 13.9669 75.4667 20.8669 72.2 34.8002Z" stroke="black" stroke-width="4" stroke-linecap="round" stroke-linejoin="round"/>
<path d="M42.1333 28.4333L58.3 32.5333M38.8667 41.3333L48.5333 43.8M50.2 64.6333C48.1333 66.0333 45.5333 67.2 42.3667 68.2333L37.1 69.9667C23.8667 74.2333 16.9 70.6667 12.6 57.4333L8.33333 44.2667C4.06667 31.0333 7.6 24.0333 20.8333 19.7667L26.1 18.0333C27.4667 17.6 28.7667 17.2333 30 17C29 19.0333 28.2 21.5 27.5333 24.3333L24.2667 38.3C21 52.2333 25.3 59.1 39.2 62.4L44.8 63.7333C46.7333 64.2 48.5333 64.5 50.2 64.6333Z" stroke="black" stroke-width="4" stroke-linecap="round" stroke-linejoin="round"/>
</svg>
