<svg width="40" height="40" viewBox="0 0 40 40" fill="none" xmlns="http://www.w3.org/2000/svg">
<rect x="0.5" y="0.5" width="39" height="39" stroke="black"/>
<path d="M20.5 14.6221C19.5352 14.6221 18.5921 14.9082 17.79 15.4442C16.9878 15.9802 16.3626 16.742 15.9934 17.6333C15.6242 18.5247 15.5276 19.5055 15.7158 20.4517C15.904 21.3979 16.3686 22.2671 17.0508 22.9493C17.733 23.6313 18.6021 24.0959 19.5483 24.2841C20.4946 24.4724 21.4753 24.3758 22.3667 24.0066C23.258 23.6374 24.0198 23.0122 24.5558 22.2101C25.0919 21.4078 25.3779 20.4647 25.3779 19.5C25.3794 18.859 25.2544 18.224 25.0098 17.6315C24.7652 17.0389 24.406 16.5006 23.9527 16.0473C23.4994 15.594 22.9611 15.2348 22.3686 14.9902C21.776 14.7456 21.141 14.6205 20.5 14.6221ZM20.5 22.6766C19.8717 22.6766 19.2576 22.4903 18.7351 22.1412C18.2129 21.7923 17.8057 21.2961 17.5652 20.7157C17.3248 20.1352 17.2619 19.4965 17.3845 18.8803C17.507 18.2641 17.8096 17.698 18.2538 17.2538C18.698 16.8096 19.2641 16.507 19.8803 16.3845C20.4965 16.2619 21.1352 16.3248 21.7157 16.5652C22.2961 16.8057 22.7923 17.2129 23.1412 17.7351C23.4903 18.2576 23.6766 18.8717 23.6766 19.5C23.6766 20.3424 23.3419 21.1505 22.7462 21.7462C22.1505 22.3419 21.3424 22.6766 20.5 22.6766ZM26.7223 14.4199C26.7223 14.6552 26.6526 14.8852 26.5218 15.0808C26.3911 15.2765 26.2052 15.429 25.9879 15.519C25.7705 15.6091 25.5313 15.6326 25.3004 15.5867C25.0696 15.5408 24.8577 15.4275 24.6913 15.2611C24.525 15.0947 24.4116 14.8828 24.3657 14.652C24.3197 14.4212 24.3433 14.182 24.4334 13.9646C24.5234 13.7472 24.676 13.5614 24.8715 13.4306C25.0673 13.2999 25.2972 13.2301 25.5326 13.2301C25.8481 13.2301 26.1507 13.3555 26.3738 13.5786C26.597 13.8017 26.7223 14.1043 26.7223 14.4199ZM29.9465 15.6096C29.9811 14.1305 29.4294 12.6978 28.4117 11.624C27.3436 10.5933 25.9102 10.0285 24.4261 10.0535C22.8795 9.98215 18.1205 9.98215 16.5739 10.0535C15.0953 10.0215 13.6635 10.5729 12.5883 11.5883C11.5706 12.6621 11.0189 14.0949 11.0535 15.5739C10.9822 17.1205 10.9822 21.8795 11.0535 23.4261C11.0189 24.9052 11.5706 26.3379 12.5883 27.4117C13.6635 28.4271 15.0953 28.9785 16.5739 28.9465C18.1443 29.0416 22.8557 29.0416 24.4261 28.9465C25.9052 28.9811 27.3379 28.4294 28.4117 27.4117C29.4294 26.3379 29.9811 24.9052 29.9465 23.4261C30.0178 21.8795 30.0178 17.1205 29.9465 15.5739V15.6096ZM27.9239 25.1274C27.7624 25.5367 27.5186 25.9082 27.2075 26.2194C26.8963 26.5305 26.5248 26.7743 26.1155 26.9358C24.2686 27.3093 22.3805 27.4373 20.5 27.3165C18.6235 27.4374 16.7393 27.3094 14.8964 26.9358C14.4872 26.7743 14.1155 26.5305 13.8045 26.2194C13.4934 25.9082 13.2495 25.5367 13.088 25.1274C12.5883 23.8663 12.6954 20.892 12.6954 19.5119C12.6954 18.1318 12.5883 15.1456 13.088 13.8964C13.245 13.4831 13.4871 13.1075 13.7986 12.7939C14.1102 12.4804 14.4842 12.2358 14.8964 12.0761C16.7393 11.7025 18.6235 11.5745 20.5 11.6954C22.3805 11.5747 24.2686 11.7027 26.1155 12.0761C26.5248 12.2376 26.8963 12.4815 27.2075 12.7926C27.5186 13.1036 27.7624 13.4753 27.9239 13.8845C28.4236 15.1456 28.3046 18.1199 28.3046 19.5C28.3046 20.8801 28.4236 23.8663 27.9239 25.1155V25.1274Z" fill="black"/>
</svg>
