<svg width="40" height="40" viewBox="0 0 40 40" fill="none" xmlns="http://www.w3.org/2000/svg">
<path d="M28.3333 3.33301H11.6667C7.0643 3.33301 3.33334 7.06397 3.33334 11.6663V28.333C3.33334 32.9354 7.0643 36.6663 11.6667 36.6663H28.3333C32.9357 36.6663 36.6667 32.9354 36.6667 28.333V11.6663C36.6667 7.06397 32.9357 3.33301 28.3333 3.33301Z" stroke="white" stroke-width="2" stroke-linecap="round" stroke-linejoin="round"/>
<path d="M26.6667 18.9495C26.8724 20.3366 26.6354 21.7532 25.9896 22.9979C25.3438 24.2425 24.3219 25.2519 23.0694 25.8823C21.8168 26.5127 20.3974 26.7322 19.013 26.5094C17.6285 26.2866 16.3496 25.633 15.3581 24.6415C14.3665 23.6499 13.7129 22.371 13.4901 20.9865C13.2673 19.6021 13.4868 18.1827 14.1172 16.9301C14.7476 15.6776 15.757 14.6558 17.0016 14.0099C18.2463 13.3641 19.6629 13.1272 21.05 13.3329C22.4649 13.5427 23.7747 14.202 24.7862 15.2134C25.7976 16.2248 26.4569 17.5347 26.6667 18.9495Z" stroke="white" stroke-width="2" stroke-linecap="round" stroke-linejoin="round"/>
<path d="M29.1667 10.833H29.1833" stroke="white" stroke-width="2" stroke-linecap="round" stroke-linejoin="round"/>
</svg>
