<svg width="40" height="40" viewBox="0 0 40 40" fill="none" xmlns="http://www.w3.org/2000/svg">
<rect x="0.5" y="0.5" width="39" height="39" stroke="black"/>
<path d="M22.8678 17.9418C23.2986 17.9418 23.6478 17.5926 23.6478 17.1618C23.6478 16.7311 23.2986 16.3818 22.8678 16.3818C22.437 16.3818 22.0878 16.7311 22.0878 17.1618C22.0878 17.5926 22.437 17.9418 22.8678 17.9418Z" fill="#0A142F"/>
<path fill-rule="evenodd" clip-rule="evenodd" d="M16.25 20.5C16.25 22.2924 17.7076 23.75 19.5 23.75C21.2924 23.75 22.75 22.2924 22.75 20.5C22.75 18.7076 21.2924 17.25 19.5 17.25C17.7076 17.25 16.25 18.7076 16.25 20.5ZM17.875 20.5C17.875 19.6038 18.6038 18.875 19.5 18.875C20.3962 18.875 21.125 19.6038 21.125 20.5C21.125 21.3962 20.3962 22.125 19.5 22.125C18.6038 22.125 17.875 21.3962 17.875 20.5Z" fill="#0A142F"/>
<path fill-rule="evenodd" clip-rule="evenodd" d="M16.25 27H22.75C24.4205 27 26 25.4205 26 23.75V17.25C26 15.5795 24.4205 14 22.75 14H16.25C14.5795 14 13 15.5795 13 17.25V23.75C13 25.4205 14.5795 27 16.25 27ZM14.625 17.25C14.625 16.4903 15.4903 15.625 16.25 15.625H22.75C23.5097 15.625 24.375 16.4903 24.375 17.25V23.75C24.375 24.5097 23.5097 25.375 22.75 25.375H16.25C15.4757 25.375 14.625 24.5243 14.625 23.75V17.25Z" fill="#0A142F"/>
</svg>
