<svg width="40" height="40" viewBox="0 0 40 40" fill="none" xmlns="http://www.w3.org/2000/svg">
<rect x="0.5" y="0.5" width="39" height="39" stroke="black"/>
<path d="M14.6875 16.375C15.6195 16.375 16.375 15.6195 16.375 14.6875C16.375 13.7555 15.6195 13 14.6875 13C13.7555 13 13 13.7555 13 14.6875C13 15.6195 13.7555 16.375 14.6875 16.375Z" fill="#0A142F"/>
<path d="M16.0938 17.5H13.2812C13.126 17.5 13 17.626 13 17.7812V26.2188C13 26.374 13.126 26.5 13.2812 26.5H16.0938C16.249 26.5 16.375 26.374 16.375 26.2188V17.7812C16.375 17.626 16.249 17.5 16.0938 17.5Z" fill="#0A142F"/>
<path d="M24.4733 17.1125C23.2712 16.7007 21.7677 17.0624 20.866 17.711C20.8351 17.59 20.7248 17.5 20.5938 17.5H17.7812C17.626 17.5 17.5 17.626 17.5 17.7813V26.2188C17.5 26.374 17.626 26.5 17.7812 26.5H20.5938C20.749 26.5 20.875 26.374 20.875 26.2188V20.155C21.3295 19.7635 21.9151 19.6387 22.3943 19.8423C22.8589 20.0386 23.125 20.5178 23.125 21.1563V26.2188C23.125 26.374 23.251 26.5 23.4062 26.5H26.2188C26.374 26.5 26.5 26.374 26.5 26.2188V20.5898C26.4679 18.2785 25.3806 17.423 24.4733 17.1125Z" fill="#0A142F"/>
</svg>
