<svg width="40" height="40" viewBox="0 0 40 40" fill="none" xmlns="http://www.w3.org/2000/svg">
<rect x="0.5" y="0.5" width="39" height="39" stroke="black"/>
<path d="M30.087 23.4678C29.6298 22.9189 29.1102 22.427 28.6077 21.9513C28.429 21.7821 28.2443 21.6072 28.0662 21.4333C27.5549 20.9334 27.5363 20.7456 27.9411 20.1778C28.2212 19.7864 28.5181 19.3945 28.8053 19.0155C29.0657 18.6716 29.3351 18.316 29.5933 17.9592L29.6463 17.8859C30.1397 17.2032 30.65 16.4972 30.9215 15.6456C30.992 15.4209 31.0661 15.0903 30.8968 14.8138C30.7276 14.5376 30.3994 14.4533 30.1672 14.4139C30.0523 14.3944 29.9383 14.3918 29.8324 14.3918L26.6012 14.3895L26.5745 14.3892C26.0859 14.3892 25.7567 14.6195 25.568 15.0932C25.3879 15.5458 25.19 16.0277 24.9642 16.486C24.5149 17.3985 23.9443 18.4496 23.1186 19.3262L23.0837 19.3635C22.9862 19.4683 22.8757 19.5869 22.7949 19.5869C22.7826 19.5869 22.7691 19.5846 22.7538 19.5798C22.5828 19.5131 22.468 19.0991 22.4732 18.9065C22.4733 18.9038 22.4733 18.9011 22.4733 18.8985L22.4711 15.1638C22.4711 15.1509 22.4701 15.138 22.4685 15.1252C22.3863 14.5181 22.2042 14.1402 21.5162 14.0054C21.498 14.0018 21.4793 14 21.4607 14H18.1008C17.5534 14 17.2518 14.2225 16.9683 14.5555C16.8917 14.6445 16.7324 14.8298 16.8114 15.0546C16.8915 15.2828 17.1515 15.3316 17.2362 15.3474C17.6566 15.4274 17.8935 15.6845 17.9606 16.1338C18.0778 16.9139 18.0922 17.7465 18.0059 18.7542C17.9819 19.0343 17.9343 19.2506 17.8559 19.4354C17.8377 19.4785 17.7732 19.6192 17.7073 19.6193C17.6864 19.6193 17.6259 19.6111 17.5156 19.5351C17.255 19.3566 17.0643 19.1018 16.842 18.787C16.0857 17.7182 15.451 16.5407 14.9013 15.1866C14.6974 14.6881 14.3166 14.409 13.8287 14.4008C13.2925 14.3927 12.8064 14.3887 12.3427 14.3887C11.8361 14.3887 11.3665 14.3934 10.9079 14.4029C10.5153 14.4099 10.2437 14.5276 10.1008 14.753C9.95769 14.9786 9.967 15.275 10.1285 15.6337C11.4213 18.5079 12.5935 20.5976 13.9294 22.4099C14.8654 23.678 15.8042 24.5557 16.8836 25.1719C18.0209 25.8225 19.2953 26.1388 20.7797 26.1388C20.948 26.1388 21.1219 26.1347 21.2974 26.1265C22.1599 26.0845 22.4799 25.7723 22.5204 24.9325C22.5396 24.5033 22.5866 24.0532 22.7975 23.6693C22.9307 23.4274 23.0549 23.4274 23.0957 23.4274C23.1743 23.4274 23.2718 23.4636 23.3764 23.5314C23.5642 23.654 23.7252 23.8181 23.8571 23.9615C23.9814 24.0978 24.1042 24.2354 24.2271 24.3731C24.4925 24.6703 24.7668 24.9775 25.0534 25.2689C25.6807 25.9071 26.3717 26.1878 27.1654 26.1269H30.1279C30.1342 26.1269 30.1406 26.1266 30.1469 26.1262C30.4421 26.1067 30.6978 25.943 30.8483 25.677C31.0349 25.3474 31.0311 24.927 30.8383 24.5521C30.6195 24.1282 30.3357 23.766 30.087 23.4678Z" fill="black"/>
</svg>
